<?xml version="1.0" encoding="iso-8859-1"?>
<!-- Generator: Adobe Illustrator 19.0.0, SVG Export Plug-In . SVG Version: 6.00 Build 0)  -->
<svg version="1.1" id="Capa_1" xmlns="http://www.w3.org/2000/svg" xmlns:xlink="http://www.w3.org/1999/xlink" x="0px" y="0px"
	 viewBox="0 0 512 512" style="enable-background:new 0 0 512 512;" xml:space="preserve">
<g>
	<g>
		<path d="M494.5,29.563l-12.067-12.067C471.232,6.293,456.038,0,440.196,0c-15.842,0-31.036,6.293-42.237,17.496l-36.2,36.204
			L20.425,395.034c-0.048,0.048-0.061,0.115-0.108,0.164c-2.712,2.514-4.529,5.845-5.175,9.486l-0.033,0.183L0.1,502.167
			c-0.415,2.687,0.476,5.412,2.399,7.335c1.923,1.923,4.647,2.814,7.335,2.399l97.483-15.037c3.672-0.66,7.03-2.496,9.567-5.232
			l0.083-0.056L458.3,150.242l36.2-36.204C505.705,102.837,512,87.643,512,71.8C512,55.957,505.705,40.763,494.5,29.563z
			 M367.792,71.8l12.069,12.069L68.542,395.183c-2.134-1.319-4.517-2.184-7-2.541l-13.646-0.945L367.792,71.8z M18.742,493.258
			l13.208-85.646l27.783,1.987v25.6c0.011,9.421,7.645,17.056,17.067,17.067l25.542-0.612l2.192,28.371L18.742,493.258z
			 M100.938,435.2H76.8v-24.142L391.925,95.938l24.142,24.137L100.938,435.2z M120.307,464.101l-1.007-14.247
			c-0.344-2.303-1.164-4.509-2.406-6.478l311.239-311.235l12.067,12.067L120.307,464.101z M452.267,132.142l-72.408-72.408
			l24.133-24.137l72.408,72.408L452.267,132.142z M487.867,95.338L487.867,95.338l-71.208-71.208
			c16.923-11.168,39.365-8.898,53.708,5.433l12.067,12.067C496.77,55.97,499.041,78.416,487.867,95.338z"/>
	</g>
</g>
<g>
</g>
<g>
</g>
<g>
</g>
<g>
</g>
<g>
</g>
<g>
</g>
<g>
</g>
<g>
</g>
<g>
</g>
<g>
</g>
<g>
</g>
<g>
</g>
<g>
</g>
<g>
</g>
<g>
</g>
</svg>
